<?xml version="1.0" encoding="utf-8"?>
<!-- Generator: Adobe Illustrator 16.0.3, SVG Export Plug-In . SVG Version: 6.00 Build 0)  -->
<!DOCTYPE svg PUBLIC "-//W3C//DTD SVG 1.1//EN" "http://www.w3.org/Graphics/SVG/1.1/DTD/svg11.dtd">
<svg version="1.1" id="Ebene_1" xmlns="http://www.w3.org/2000/svg" xmlns:xlink="http://www.w3.org/1999/xlink" x="0px" y="0px"
	 width="40px" height="57px" viewBox="0 0 40 57" enable-background="new 0 0 40 57" xml:space="preserve">
<g>
	<defs>
		<rect id="SVGID_1_" x="0.211" y="0.209" width="39.578" height="56.583"/>
	</defs>
	<clipPath id="SVGID_2_">
		<use xlink:href="#SVGID_1_"  overflow="visible"/>
	</clipPath>
	<g clip-path="url(#SVGID_2_)">
		<defs>
			<rect id="SVGID_3_" x="0.211" y="0.208" width="39.578" height="56.584"/>
		</defs>
		<clipPath id="SVGID_4_">
			<use xlink:href="#SVGID_3_"  overflow="visible"/>
		</clipPath>
		<path clip-path="url(#SVGID_4_)" fill="#B2B2B2" d="M28.887,0.209h-3.971v2.065h2.609c0.096,0.288,0.145,0.64,0.145,0.993
			c0,1.361-0.881,2.289-2.482,2.289c-1.648,0-2.578-1.072-2.578-2.53c0-0.8,0.16-1.537,0.467-2.273l-1.779-0.385
			c-0.287,0.897-0.415,1.81-0.415,2.706c0,2.946,1.985,4.675,4.465,4.675c2.754,0,4.146-1.841,4.146-4.307
			C29.494,2.258,29.271,1.201,28.887,0.209 M23.588,10.651c0.688,0,1.152,0.513,1.152,1.313c0,0.224,0,0.48-0.033,0.688h-2.129
			c-0.016-0.192-0.031-0.4-0.031-0.625C22.547,11.179,22.93,10.651,23.588,10.651 M29.352,8.009L26.662,9.85
			c-0.354,0.241-0.689,0.464-0.914,0.624c-0.287-1.2-1.088-2.017-2.369-2.017c-1.617,0-2.401,1.217-2.401,3.266
			c0,1.057,0.016,2.321,0.047,2.993h8.326v-2.065h-3.25v-0.079l3.25-2.05V8.009z M26.133,16.446h-5.107v2.034h4.852
			c1.201,0,1.904,0.496,1.904,1.761c0,1.169-0.543,1.776-1.824,1.776h-4.932v2.066h5.395c1.891,0,3.074-1.201,3.074-3.73
			C29.494,17.615,27.99,16.446,26.133,16.446 M26.756,27.647c0.689,0,1.154,0.465,1.154,1.474c0,0.319-0.016,0.64-0.049,0.88h-2.129
			c-0.016-0.208-0.016-0.528-0.016-0.704C25.717,28.256,26.02,27.647,26.756,27.647 M23.363,27.775c0.721,0,1.072,0.656,1.072,1.633
			c0,0.112,0,0.353-0.016,0.593h-1.986c0-0.272-0.016-0.608-0.016-0.865C22.418,28.097,22.803,27.775,23.363,27.775 M26.756,25.471
			c-0.895,0-1.6,0.464-1.855,1.392h-0.016c-0.32-0.832-1.025-1.28-1.826-1.28c-1.313,0-2.081,0.913-2.081,3.153
			c0,1.105,0.047,2.467,0.047,3.314h8.326c0-1.28,0.031-2.369,0.031-2.978C29.383,26.334,28.006,25.471,26.756,25.471
			 M29.389,33.808l-8.395,0.003v2.157l8.395,0.001V33.808z M29.352,37.462h-1.648v3.058h-1.826v-2.913h-1.57v2.913h-1.664v-3.058
			h-1.617v5.123h8.326V37.462z M23.588,46.209c0.688,0,1.152,0.512,1.152,1.313c0,0.224,0,0.48-0.033,0.688h-2.129
			c-0.016-0.191-0.031-0.4-0.031-0.625C22.547,46.736,22.93,46.209,23.588,46.209 M29.352,43.565l-2.689,1.843
			c-0.354,0.24-0.689,0.464-0.914,0.623c-0.287-1.2-1.088-2.017-2.369-2.017c-1.617,0-2.401,1.217-2.401,3.267
			c0,1.057,0.016,2.321,0.047,2.993h8.326V48.21h-3.25v-0.08l3.25-2.05V43.565z M22.643,51.495h-1.617v5.043h8.326v-2.065h-3.314
			v-2.818h-1.586v2.818h-1.809V51.495z"/>
		<path clip-path="url(#SVGID_4_)" fill="#B2B2B2" d="M18.998,33.811h-8.395v2.159h8.395V33.811z M18.979,38.649h-8.396v2.019
			l3.536-0.016c0.872,0,1.566-0.018,2.067-0.049v0.017c-0.565,0.258-1.098,0.549-1.599,0.871l-4.004,2.438v2.793h8.396V44.72h-4.15
			c-0.662,0-1.083,0.018-1.486,0.05v-0.017c0.469-0.21,1.066-0.501,1.534-0.791l4.102-2.519V38.649z M15.733,49.091h-5.15v2.05
			h4.893c1.21,0,1.92,0.501,1.92,1.776c0,1.178-0.548,1.793-1.84,1.793h-4.973v2.082h5.441c1.905,0,3.1-1.211,3.1-3.762
			C19.125,50.27,17.607,49.091,15.733,49.091"/>
		<g clip-path="url(#SVGID_4_)">
			<g>
				<defs>
					<rect id="SVGID_5_" x="26.699" y="28.532" width="13.676" height="12.724"/>
				</defs>
				<clipPath id="SVGID_6_">
					<use xlink:href="#SVGID_5_"  overflow="visible"/>
				</clipPath>
				<rect x="31.393" y="33.814" clip-path="url(#SVGID_6_)" fill="#C10B25" width="8.396" height="2.161"/>
			</g>
		</g>
		<g clip-path="url(#SVGID_4_)">
			<g>
				<defs>
					<rect id="SVGID_7_" x="-4.483" y="28.532" width="13.69" height="12.724"/>
				</defs>
				<clipPath id="SVGID_8_">
					<use xlink:href="#SVGID_7_"  overflow="visible"/>
				</clipPath>
				<rect x="0.211" y="33.813" clip-path="url(#SVGID_8_)" fill="#C10B25" width="8.409" height="2.162"/>
			</g>
		</g>
	</g>
</g>
</svg>
